<svg width="32" height="32" viewBox="0 0 40 30" fill="none" xmlns="http://www.w3.org/2000/svg">
  <path d="M39.5529 4.42378C37.115 4.42378 35.1361 2.44475 35.1361 0H34.079C34.079 2.44112 32.1026 4.42378 29.6623 4.42378C27.2219 4.42378 25.2454 2.44475 25.2454 0H24.1908C24.1908 2.44112 22.2144 4.42378 19.7741 4.42378C17.3336 4.42378 15.3572 2.44475 15.3572 0H14.3026C14.3026 2.44112 12.3262 4.42378 9.88583 4.42378C7.44546 4.42378 5.47144 2.44112 5.47144 0H4.41678C4.41678 2.44112 2.44034 4.42378 0 4.42378V5.47983C2.43792 5.47983 4.41678 7.45884 4.41678 9.90364H5.47144C5.47144 7.46248 7.44788 5.47983 9.88822 5.47983C12.3286 5.47983 14.305 7.45884 14.305 9.90364C14.305 12.3483 12.3286 14.3274 9.88822 14.3274V15.3834C12.3262 15.3834 14.305 17.3625 14.305 19.8072H15.3597C15.3597 17.3661 17.3361 15.3834 19.7764 15.3834C22.2168 15.3834 24.1932 17.3625 24.1932 19.8072C24.1932 22.252 22.2168 24.231 19.7764 24.231V25.2871C22.2144 25.2871 24.1932 27.2661 24.1932 29.7108H25.2478C25.2478 27.2697 27.2243 25.2871 29.6647 25.2871V24.231C27.2267 24.231 25.2478 22.252 25.2478 19.8072C25.2478 17.3625 27.2243 15.3834 29.6647 15.3834V14.3274C27.2267 14.3274 25.2478 12.3483 25.2478 9.90364C25.2478 7.45884 27.2243 5.47983 29.6647 5.47983C32.105 5.47983 34.0814 7.45884 34.0814 9.90364H35.1361C35.1361 7.46248 37.1126 5.47983 39.5529 5.47983V4.42378ZM19.7741 14.3237C17.3361 14.3237 15.3572 12.3447 15.3572 9.9C15.3572 7.45521 17.3336 5.47619 19.7741 5.47619C22.2144 5.47619 24.1908 7.45521 24.1908 9.9C24.1908 12.3447 22.2144 14.3237 19.7741 14.3237Z" fill="#9FF792"/>
</svg>
